<svg xmlns="http://www.w3.org/2000/svg" xmlns:xlink="http://www.w3.org/1999/xlink" width="565" height="512" viewBox="0 0 565 512">
  <defs>
    <clipPath id="clip-Crescent">
      <rect width="565" height="512"/>
    </clipPath>
  </defs>
  <g id="Crescent" clip-path="url(#clip-Crescent)">
    <g id="Group_3" data-name="Group 3" transform="translate(-11.554 -33.634)">
      <g id="Group_1" data-name="Group 1" transform="translate(81.088 171.543)">
        <path id="Path_2" data-name="Path 2" d="M33.954,1.837,167.924,0c18.5-.253,33.287,14.3,33.034,32.5S185.5,65.676,167.007,65.929L33.037,67.763C14.54,68.017-.25,53.464,0,35.259S15.457,2.09,33.954,1.837Z" transform="translate(174.038 236.941) rotate(-150)" fill="#fff" opacity="0.998"/>
        <path id="Subtraction_2" data-name="Subtraction 2" d="M33.8,126.694h0a34.816,34.816,0,0,1-16.665-4.244,33.226,33.226,0,0,1-12.6-12.111A31.617,31.617,0,0,1,1.093,85.781a32.607,32.607,0,0,1,15.8-20.109l66.3-37.08,50.635,28.318a34.689,34.689,0,0,0,33.27.273L50.647,122.308A34.579,34.579,0,0,1,33.8,126.694ZM176.086,50.172l0,0a32.882,32.882,0,0,0,5.664-8.711A32.323,32.323,0,0,1,176.086,50.172Zm8.281-24.082a32,32,0,0,0-3.122-11.439,31.7,31.7,0,0,1,3.127,11.439ZM171.617,2.918A34.259,34.259,0,0,0,167.585.276L167.092,0a33.541,33.541,0,0,1,4.527,2.914Z" transform="translate(229.712 96.065)" fill="#fff" opacity="0.998"/>
        <path id="Path_3" data-name="Path 3" d="M33.037,67.763l133.97-1.834c18.5-.253,33.7-15.217,33.951-33.422S186.422-.25,167.924,0L33.954,1.837C15.457,2.09.256,17.054,0,35.259S14.54,68.017,33.037,67.763Z" transform="translate(251.873 0) rotate(30)" fill="#fff" opacity="0.998"/>
      </g>
      <path id="Subtraction_3" data-name="Subtraction 3" d="M1.5,107.773A31.506,31.506,0,0,1,0,98.9a31.889,31.889,0,0,0,1.5,8.872ZM101.268,98.1h0L50.632,69.781a34.7,34.7,0,0,0-33.224-.3l116.406-65.1a34.69,34.69,0,0,1,33.51-.143,33.225,33.225,0,0,1,12.6,12.112,31.617,31.617,0,0,1,3.442,24.558,32.607,32.607,0,0,1-15.8,20.109L101.269,98.1ZM5.038,80.907l0,0a32.615,32.615,0,0,1,2.047-2.86A34.333,34.333,0,0,0,5.038,80.907Z" transform="translate(92.827 185.725)" fill="#fff" opacity="0.998"/>
    </g>
  </g>
</svg>
